<svg width="24" height="24" viewBox="0 0 24 24" fill="none" xmlns="http://www.w3.org/2000/svg">
<g clip-path="url(#clip0_240_24361)">
<path fill-rule="evenodd" clip-rule="evenodd" d="M12 0.000244141C5.37 0.000244141 0 5.37024 0 12.0002C0 17.3102 3.435 21.7952 8.205 23.3852C8.805 23.4902 9.03 23.1302 9.03 22.8152C9.03 22.5302 9.015 21.5852 9.015 20.5802C6 21.1352 5.22 19.8452 4.98 19.1702C4.845 18.8252 4.26 17.7602 3.75 17.4752C3.33 17.2502 2.73 16.6952 3.735 16.6802C4.68 16.6652 5.355 17.5502 5.58 17.9102C6.66 19.7252 8.385 19.2152 9.075 18.9002C9.18 18.1202 9.495 17.5952 9.84 17.2952C7.17 16.9952 4.38 15.9602 4.38 11.3702C4.38 10.0652 4.845 8.98524 5.61 8.14524C5.49 7.84524 5.07 6.61524 5.73 4.96524C5.73 4.96524 6.735 4.65024 9.03 6.19524C9.99 5.92524 11.01 5.79024 12.03 5.79024C13.05 5.79024 14.07 5.92524 15.03 6.19524C17.325 4.63524 18.33 4.96524 18.33 4.96524C18.99 6.61524 18.57 7.84524 18.45 8.14524C19.215 8.98524 19.68 10.0502 19.68 11.3702C19.68 15.9752 16.875 16.9952 14.205 17.2952C14.64 17.6702 15.015 18.3902 15.015 19.5152C15.015 21.1202 15 22.4102 15 22.8152C15 23.1302 15.225 23.5052 15.825 23.3852C18.2072 22.581 20.2772 21.0499 21.7437 19.0076C23.2101 16.9653 23.9993 14.5145 24 12.0002C24 5.37024 18.63 0.000244141 12 0.000244141Z" fill="#DDDDDD"/>
</g>
<defs>
<clipPath id="clip0_240_24361">
<rect width="24" height="24" fill="white" transform="translate(0 0.000244141)"/>
</clipPath>
</defs>
</svg>
