<svg width="172" height="51" viewBox="0 0 172 51" fill="none" xmlns="http://www.w3.org/2000/svg">
<path d="M56.8888 8.20312C56.7595 7.75379 56.5779 7.35677 56.344 7.01207C56.1101 6.66122 55.8239 6.36577 55.4854 6.12571C55.153 5.8795 54.7713 5.69176 54.3405 5.5625C53.9158 5.43324 53.4449 5.36861 52.9278 5.36861C51.9615 5.36861 51.112 5.60866 50.3795 6.08878C49.6532 6.56889 49.0869 7.26752 48.6807 8.18466C48.2744 9.09564 48.0713 10.2098 48.0713 11.527C48.0713 12.8442 48.2713 13.9645 48.6714 14.8878C49.0715 15.8111 49.6378 16.5159 50.3703 17.0021C51.1028 17.4822 51.9676 17.7223 52.9648 17.7223C53.8696 17.7223 54.6421 17.5623 55.2822 17.2422C55.9285 16.916 56.421 16.4574 56.7595 15.8665C57.1042 15.2756 57.2766 14.5769 57.2766 13.7706L58.0891 13.8906H53.2141V10.8807H61.1267V13.2628C61.1267 14.9247 60.7758 16.3527 60.0741 17.5469C59.3724 18.7348 58.4061 19.652 57.175 20.2983C55.9439 20.9384 54.5344 21.2585 52.9463 21.2585C51.1736 21.2585 49.6163 20.8677 48.2744 20.0859C46.9326 19.2981 45.8862 18.1809 45.1352 16.7344C44.3904 15.2817 44.018 13.5582 44.018 11.5639C44.018 10.0312 44.2396 8.66477 44.6828 7.46449C45.1321 6.25805 45.76 5.23627 46.5663 4.39915C47.3727 3.56203 48.3114 2.92495 49.3824 2.48793C50.4534 2.0509 51.6137 1.83239 52.8632 1.83239C53.9342 1.83239 54.9314 1.98935 55.8547 2.30327C56.778 2.61103 57.5966 3.04806 58.3106 3.61435C59.0308 4.18063 59.6187 4.85464 60.0741 5.63636C60.5296 6.41193 60.822 7.26752 60.9513 8.20312H56.8888ZM63.5359 21V6.81818H67.3491V9.29261H67.4968C67.7553 8.4124 68.1893 7.74763 68.7986 7.2983C69.408 6.8428 70.1097 6.61506 70.9038 6.61506C71.1007 6.61506 71.3131 6.62737 71.5408 6.65199C71.7686 6.67661 71.9686 6.71046 72.141 6.75355V10.2436C71.9563 10.1882 71.7009 10.139 71.3746 10.0959C71.0484 10.0528 70.7499 10.0312 70.479 10.0312C69.9004 10.0312 69.3834 10.1574 68.9279 10.4098C68.4786 10.656 68.1216 11.0007 67.8569 11.4439C67.5984 11.8871 67.4691 12.398 67.4691 12.9766V21H63.5359ZM77.2923 21.2678C76.3875 21.2678 75.5811 21.1108 74.8733 20.7969C74.1654 20.4768 73.6053 20.0059 73.1929 19.3842C72.7866 18.7564 72.5835 17.9747 72.5835 17.0391C72.5835 16.2512 72.7282 15.5895 73.0175 15.054C73.3068 14.5185 73.7007 14.0876 74.1993 13.7614C74.6978 13.4351 75.2641 13.1889 75.8981 13.0227C76.5383 12.8565 77.2092 12.7396 77.9109 12.6719C78.7357 12.5857 79.4005 12.5057 79.9052 12.4318C80.41 12.3518 80.7762 12.2348 81.004 12.081C81.2317 11.9271 81.3456 11.6993 81.3456 11.3977V11.3423C81.3456 10.7576 81.1609 10.3052 80.7916 9.98508C80.4284 9.66501 79.9114 9.50497 79.2405 9.50497C78.5326 9.50497 77.9694 9.66193 77.5508 9.97585C77.1323 10.2836 76.8553 10.6714 76.7199 11.1392L73.0821 10.8438C73.2667 9.98201 73.6299 9.23722 74.1716 8.60938C74.7132 7.97538 75.4119 7.48911 76.2675 7.15057C77.1292 6.80587 78.1264 6.63352 79.2589 6.63352C80.0468 6.63352 80.8008 6.72585 81.521 6.91051C82.2473 7.09517 82.8906 7.38139 83.4507 7.76918C84.017 8.15696 84.4632 8.65554 84.7895 9.26491C85.1157 9.86813 85.2788 10.5914 85.2788 11.4347V21H81.5487V19.0334H81.4379C81.2102 19.4766 80.9055 19.8674 80.5238 20.206C80.1422 20.5384 79.6836 20.8 79.1481 20.9908C78.6126 21.1754 77.994 21.2678 77.2923 21.2678ZM78.4187 18.5533C78.9973 18.5533 79.5082 18.4394 79.9514 18.2116C80.3946 17.9777 80.7424 17.6638 80.9947 17.2699C81.2471 16.8759 81.3733 16.4297 81.3733 15.9311V14.4261C81.2502 14.5062 81.0809 14.58 80.8655 14.6477C80.6562 14.7093 80.4192 14.7678 80.1545 14.8232C79.8898 14.8724 79.6252 14.9186 79.3605 14.9616C79.0958 14.9986 78.8558 15.0324 78.6403 15.0632C78.1787 15.1309 77.7755 15.2386 77.4308 15.3864C77.0861 15.5341 76.8184 15.7341 76.6275 15.9865C76.4367 16.2327 76.3413 16.5405 76.3413 16.9098C76.3413 17.4453 76.5352 17.8546 76.923 18.1378C77.3169 18.4148 77.8155 18.5533 78.4187 18.5533ZM91.7435 12.8011V21H87.8103V6.81818H91.5589V9.32031H91.7251C92.039 8.4955 92.5653 7.84304 93.3039 7.36293C94.0426 6.87666 94.9382 6.63352 95.9907 6.63352C96.9756 6.63352 97.8342 6.84896 98.5667 7.27983C99.2992 7.7107 99.8685 8.32623 100.275 9.12642C100.681 9.92045 100.884 10.8684 100.884 11.9702V21H96.9509V12.6719C96.9571 11.804 96.7355 11.1269 96.2862 10.6406C95.8368 10.1482 95.2182 9.90199 94.4303 9.90199C93.901 9.90199 93.4332 10.0159 93.0269 10.2436C92.6268 10.4714 92.3129 10.8037 92.0852 11.2408C91.8636 11.6716 91.7497 12.1918 91.7435 12.8011ZM111.007 6.81818V9.77273H102.467V6.81818H111.007ZM104.406 3.42045H108.339V16.642C108.339 17.0052 108.395 17.2884 108.505 17.4915C108.616 17.6884 108.77 17.8269 108.967 17.907C109.17 17.987 109.404 18.027 109.669 18.027C109.853 18.027 110.038 18.0116 110.223 17.9808C110.407 17.9439 110.549 17.9162 110.647 17.8977L111.266 20.8246C111.069 20.8861 110.792 20.9569 110.435 21.0369C110.078 21.1231 109.644 21.1754 109.133 21.1939C108.185 21.2308 107.354 21.1046 106.64 20.8153C105.932 20.526 105.382 20.0767 104.988 19.4673C104.594 18.858 104.4 18.0885 104.406 17.1591V3.42045Z" fill="white"/>
<path d="M18.2682 26.0909V45H16.0522L5.74827 30.1534H5.56361V45H3.27384V26.0909H5.48974L15.8307 40.9744H16.0153V26.0909H18.2682ZM25.6878 45.3324C24.7892 45.3324 23.9736 45.1631 23.2411 44.8246C22.5086 44.4799 21.927 43.9844 21.4961 43.3381C21.0652 42.6856 20.8498 41.8977 20.8498 40.9744C20.8498 40.1619 21.0098 39.5033 21.3299 38.9986C21.65 38.4877 22.0778 38.0876 22.6133 37.7983C23.1488 37.509 23.7397 37.2936 24.386 37.152C25.0385 37.0043 25.694 36.8873 26.3526 36.8011C27.2144 36.6903 27.913 36.6072 28.4485 36.5518C28.9902 36.4903 29.3841 36.3887 29.6303 36.2472C29.8827 36.1056 30.0089 35.8594 30.0089 35.5085V35.4347C30.0089 34.5237 29.7596 33.8158 29.261 33.3111C28.7686 32.8063 28.0207 32.554 27.0174 32.554C25.9771 32.554 25.1616 32.7817 24.5707 33.2372C23.9798 33.6927 23.5643 34.179 23.3242 34.696L21.256 33.9574C21.6253 33.0956 22.1178 32.4247 22.7333 31.9446C23.355 31.4583 24.0321 31.1198 24.7646 30.929C25.5032 30.732 26.2295 30.6335 26.9435 30.6335C27.399 30.6335 27.9222 30.6889 28.5131 30.7997C29.1102 30.9044 29.6857 31.1229 30.2397 31.4553C30.7998 31.7876 31.2646 32.2893 31.6339 32.9602C32.0032 33.6312 32.1878 34.5298 32.1878 35.6562V45H30.0089V43.0795H29.8981C29.7503 43.3873 29.5041 43.7166 29.1594 44.0675C28.8147 44.4183 28.3562 44.7169 27.7837 44.9631C27.2113 45.2093 26.5127 45.3324 25.6878 45.3324ZM26.0202 43.375C26.882 43.375 27.6083 43.2057 28.1992 42.8672C28.7963 42.5286 29.2456 42.0916 29.5472 41.5561C29.855 41.0206 30.0089 40.4574 30.0089 39.8665V37.8722C29.9165 37.983 29.7134 38.0845 29.3995 38.1768C29.0917 38.263 28.7347 38.34 28.3285 38.4077C27.9284 38.4692 27.5375 38.5246 27.1559 38.5739C26.7804 38.617 26.4757 38.6539 26.2418 38.6847C25.6755 38.7585 25.1462 38.8786 24.6538 39.0447C24.1675 39.2048 23.7735 39.4479 23.4719 39.7741C23.1765 40.0942 23.0288 40.5312 23.0288 41.0852C23.0288 41.8423 23.3088 42.4148 23.869 42.8026C24.4352 43.1842 25.1523 43.375 26.0202 43.375ZM46.2137 30.8182L40.9694 45H38.7535L33.5092 30.8182H35.8728L39.7876 42.1193H39.9353L43.8501 30.8182H46.2137ZM48.0498 45V30.8182H50.2288V45H48.0498ZM49.1577 28.4545C48.733 28.4545 48.3668 28.3099 48.059 28.0206C47.7574 27.7313 47.6066 27.3835 47.6066 26.9773C47.6066 26.571 47.7574 26.2232 48.059 25.9339C48.3668 25.6446 48.733 25.5 49.1577 25.5C49.5825 25.5 49.9456 25.6446 50.2472 25.9339C50.555 26.2232 50.7089 26.571 50.7089 26.9773C50.7089 27.3835 50.555 27.7313 50.2472 28.0206C49.9456 28.3099 49.5825 28.4545 49.1577 28.4545ZM58.9041 50.6136C57.8516 50.6136 56.9468 50.4782 56.1897 50.2074C55.4325 49.9427 54.8016 49.5919 54.2969 49.1548C53.7983 48.724 53.4013 48.2623 53.1058 47.7699L54.8416 46.5511C55.0386 46.8097 55.2879 47.1051 55.5895 47.4375C55.8911 47.776 56.3035 48.0684 56.8267 48.3146C57.3561 48.567 58.0486 48.6932 58.9041 48.6932C60.049 48.6932 60.9939 48.4162 61.7387 47.8622C62.4834 47.3082 62.8558 46.4403 62.8558 45.2585V42.3778H62.6712C62.5111 42.6364 62.2834 42.9564 61.9879 43.3381C61.6986 43.7135 61.2801 44.049 60.7323 44.3445C60.1906 44.6338 59.4581 44.7784 58.5348 44.7784C57.3899 44.7784 56.362 44.5076 55.451 43.9659C54.5462 43.4242 53.8291 42.6364 53.2997 41.6023C52.7765 40.5682 52.5149 39.3125 52.5149 37.8352C52.5149 36.3826 52.7704 35.1177 53.2813 34.0405C53.7922 32.9571 54.5031 32.12 55.4141 31.5291C56.3251 30.9321 57.3776 30.6335 58.5718 30.6335C59.495 30.6335 60.2275 30.7874 60.7692 31.0952C61.317 31.3968 61.7356 31.7415 62.0249 32.1293C62.3203 32.5109 62.5481 32.8248 62.7081 33.071H62.9297V30.8182H65.0348V45.4062C65.0348 46.625 64.7578 47.616 64.2039 48.3793C63.656 49.1487 62.9174 49.7119 61.9879 50.0689C61.0647 50.4321 60.0367 50.6136 58.9041 50.6136ZM58.8303 42.821C59.7043 42.821 60.443 42.621 61.0462 42.2209C61.6494 41.8208 62.108 41.2453 62.4219 40.4943C62.7358 39.7434 62.8928 38.8447 62.8928 37.7983C62.8928 36.7765 62.7389 35.8748 62.4311 35.093C62.1234 34.3113 61.6679 33.6989 61.0647 33.2557C60.4614 32.8125 59.7166 32.5909 58.8303 32.5909C57.907 32.5909 57.1376 32.8248 56.522 33.2926C55.9127 33.7604 55.4541 34.3883 55.1463 35.1761C54.8447 35.964 54.6939 36.8381 54.6939 37.7983C54.6939 38.7831 54.8478 39.6541 55.1556 40.4112C55.4695 41.1622 55.9311 41.7531 56.5405 42.1839C57.156 42.6087 57.9193 42.821 58.8303 42.821ZM72.1568 45.3324C71.2581 45.3324 70.4425 45.1631 69.71 44.8246C68.9775 44.4799 68.3959 43.9844 67.965 43.3381C67.5341 42.6856 67.3187 41.8977 67.3187 40.9744C67.3187 40.1619 67.4787 39.5033 67.7988 38.9986C68.1189 38.4877 68.5467 38.0876 69.0822 37.7983C69.6177 37.509 70.2086 37.2936 70.8549 37.152C71.5074 37.0043 72.1629 36.8873 72.8215 36.8011C73.6833 36.6903 74.3819 36.6072 74.9174 36.5518C75.4591 36.4903 75.853 36.3887 76.0992 36.2472C76.3516 36.1056 76.4778 35.8594 76.4778 35.5085V35.4347C76.4778 34.5237 76.2285 33.8158 75.7299 33.3111C75.2375 32.8063 74.4896 32.554 73.4863 32.554C72.4461 32.554 71.6305 32.7817 71.0396 33.2372C70.4487 33.6927 70.0332 34.179 69.7931 34.696L67.7249 33.9574C68.0943 33.0956 68.5867 32.4247 69.2022 31.9446C69.8239 31.4583 70.501 31.1198 71.2335 30.929C71.9721 30.732 72.6984 30.6335 73.4124 30.6335C73.8679 30.6335 74.3911 30.6889 74.982 30.7997C75.5791 30.9044 76.1546 31.1229 76.7086 31.4553C77.2687 31.7876 77.7335 32.2893 78.1028 32.9602C78.4721 33.6312 78.6568 34.5298 78.6568 35.6562V45H76.4778V43.0795H76.367C76.2193 43.3873 75.973 43.7166 75.6283 44.0675C75.2837 44.4183 74.8251 44.7169 74.2526 44.9631C73.6802 45.2093 72.9816 45.3324 72.1568 45.3324ZM72.4891 43.375C73.3509 43.375 74.0772 43.2057 74.6681 42.8672C75.2652 42.5286 75.7145 42.0916 76.0161 41.5561C76.3239 41.0206 76.4778 40.4574 76.4778 39.8665V37.8722C76.3855 37.983 76.1823 38.0845 75.8684 38.1768C75.5606 38.263 75.2036 38.34 74.7974 38.4077C74.3973 38.4692 74.0064 38.5246 73.6248 38.5739C73.2493 38.617 72.9446 38.6539 72.7107 38.6847C72.1444 38.7585 71.6151 38.8786 71.1227 39.0447C70.6364 39.2048 70.2425 39.4479 69.9408 39.7741C69.6454 40.0942 69.4977 40.5312 69.4977 41.0852C69.4977 41.8423 69.7777 42.4148 70.3379 42.8026C70.9042 43.1842 71.6212 43.375 72.4891 43.375ZM87.7615 30.8182V32.6648H80.412V30.8182H87.7615ZM82.5541 27.4205H84.7331V40.9375C84.7331 41.553 84.8223 42.0147 85.0008 42.3224C85.1855 42.6241 85.4194 42.8272 85.7025 42.9318C85.9918 43.0303 86.2965 43.0795 86.6166 43.0795C86.8566 43.0795 87.0536 43.0672 87.2075 43.0426C87.3614 43.0118 87.4845 42.9872 87.5768 42.9688L88.02 44.9261C87.8723 44.9815 87.6661 45.0369 87.4014 45.0923C87.1367 45.1539 86.8012 45.1847 86.395 45.1847C85.7795 45.1847 85.1762 45.0523 84.5853 44.7876C84.0006 44.523 83.5143 44.1198 83.1265 43.5781C82.7449 43.0365 82.5541 42.3532 82.5541 41.5284V27.4205ZM95.6082 45.2955C94.3279 45.2955 93.2045 44.9908 92.2382 44.3814C91.2779 43.772 90.527 42.9195 89.9853 41.8239C89.4498 40.7282 89.182 39.4479 89.182 37.983C89.182 36.5057 89.4498 35.2161 89.9853 34.1143C90.527 33.0125 91.2779 32.157 92.2382 31.5476C93.2045 30.9382 94.3279 30.6335 95.6082 30.6335C96.8885 30.6335 98.0088 30.9382 98.969 31.5476C99.9354 32.157 100.686 33.0125 101.222 34.1143C101.763 35.2161 102.034 36.5057 102.034 37.983C102.034 39.4479 101.763 40.7282 101.222 41.8239C100.686 42.9195 99.9354 43.772 98.969 44.3814C98.0088 44.9908 96.8885 45.2955 95.6082 45.2955ZM95.6082 43.3381C96.5807 43.3381 97.3809 43.0888 98.0088 42.5902C98.6366 42.0916 99.1013 41.4361 99.4029 40.6236C99.7045 39.8111 99.8553 38.9309 99.8553 37.983C99.8553 37.035 99.7045 36.1518 99.4029 35.3331C99.1013 34.5144 98.6366 33.8527 98.0088 33.348C97.3809 32.8433 96.5807 32.5909 95.6082 32.5909C94.6356 32.5909 93.8355 32.8433 93.2076 33.348C92.5798 33.8527 92.115 34.5144 91.8134 35.3331C91.5118 36.1518 91.361 37.035 91.361 37.983C91.361 38.9309 91.5118 39.8111 91.8134 40.6236C92.115 41.4361 92.5798 42.0916 93.2076 42.5902C93.8355 43.0888 94.6356 43.3381 95.6082 43.3381ZM104.32 45V30.8182H106.426V32.9602H106.573C106.832 32.2585 107.3 31.6892 107.977 31.2521C108.654 30.8151 109.417 30.5966 110.267 30.5966C110.427 30.5966 110.627 30.5997 110.867 30.6058C111.107 30.612 111.288 30.6212 111.411 30.6335V32.8494C111.338 32.831 111.168 32.8033 110.904 32.7663C110.645 32.7232 110.371 32.7017 110.082 32.7017C109.392 32.7017 108.777 32.8464 108.235 33.1357C107.7 33.4188 107.275 33.8127 106.961 34.3175C106.653 34.8161 106.499 35.3854 106.499 36.0256V45H104.32Z" fill="#EBEBEB"/>
<path d="M172 24C172 29.3909 170.185 34.6247 166.848 38.8583C163.51 43.0918 158.845 46.0784 153.603 47.3369C148.361 48.5953 142.848 48.0524 137.952 45.7954C133.057 43.5385 129.063 39.6991 126.616 34.8958C124.168 30.0925 123.409 24.6051 124.461 19.3178C125.513 14.0306 128.314 9.25134 132.413 5.75026C136.512 2.24918 141.671 0.230148 147.058 0.0185033C152.444 -0.193142 157.746 1.41493 162.107 4.58359L160.696 6.52523C156.771 3.67343 152 2.22617 147.152 2.41665C142.304 2.60713 137.661 4.42426 133.972 7.57523C130.283 10.7262 127.762 15.0275 126.815 19.7861C125.869 24.5446 126.552 29.4832 128.754 33.8062C130.957 38.1292 134.551 41.5847 138.957 43.6159C143.363 45.6471 148.325 46.1358 153.042 45.0032C157.76 43.8706 161.959 41.1826 164.963 37.3724C167.967 33.5623 169.6 28.8518 169.6 24H172Z" fill="#EBEBEB"/>
<circle cx="148" cy="24" r="16" fill="#B31C0F"/>
<circle cx="168" cy="14" r="4" fill="#EBEBEB"/>
</svg>
